<?xml version="1.0" encoding="utf-8"?>
<!-- Generator: Adobe Illustrator 24.3.0, SVG Export Plug-In . SVG Version: 6.00 Build 0)  -->
<svg version="1.0" id="Layer_1" xmlns="http://www.w3.org/2000/svg" xmlns:xlink="http://www.w3.org/1999/xlink" x="0px" y="0px"
	 viewBox="0 0 1358.22 1008" style="enable-background:new 0 0 1358.22 1008;" xml:space="preserve">
<style type="text/css">
	.st0{fill:#007A33;}
	.st1{enable-background:new    ;}
	.st2{fill:none;}
</style>
<g>
	<g id="UNT_Diving_Eagle_Side-by-Side" transform="translate(-21.401 -16)">
		<g id="Eagle">
			<g>
				<path class="st0" d="M274.11,592.7c-1.7-0.6-4.4,0.6-4.4,0.6c-0.6-3.9-5-9.4-5-9.4S274.11,592.2,274.11,592.7
					c0-0.6,3.3-6.1-2.8-11.7c-8.3-8.3-25-22.8-25-22.8c1.1,3.9,7.8,15.5,4.4,37.8l8.3,1.7l1.1,1.7c0,0,9.4,1.1,11.1,2.8
					c0,0,3.3,2.2-0.6,5.6c0,0,5.6-1.1,8.3-4.4c0,0,2.8-2.2-0.6-5.6L274.11,592.7"/>
			</g>
			<g>
				<path class="st0" d="M229.21,540.5l-121.6-112.7c-5.6-5.6-3.3-12.8-3.3-12.8l-10,21.7c-2.8,7.2,1.1,11.1,4.4,13.3
					c2.8,2.2,96.6,78.3,96.6,78.3v3.3l-93.3-71.6c-4.4-3.3-3.9-9.4-3.9-9.4l-6.7,13.9c-3.3,7.8,4.4,12.8,8.3,15
					c3.3,2.8,96.1,67.7,96.1,67.7l0.6,3.9c0,0-90-60-93.3-62.2c-3.9-2.2-3.9-8.3-3.9-8.3l-6.7,13.9c-2.8,5.6,5,9.4,8.3,12.2
					c2.2,1.7,52.8,31.7,94.4,56.1h-53.9c-7.8,0-10.6-2.2-10.6-2.2l7.2,6.7c1.1,1.1,4.4,5,9.4,5c3.3,0,20,0,20,0l3.9,1.7l-17.8,1.1
					c-3.3,0-4.4,0.6-8.9-1.7l7.8,7.2c2.2,1.7,3.9,3.3,7.8,3.3c3.9-0.6,25.5-3.9,25.5-3.9l3.3,1.7l-22.8,5c-5,1.1-8.9-1.7-8.9-1.7
					s4.4,4.4,7.2,7.2c3.3,2.8,5.6,4.4,15,1.7c3.9-1.1,22.2-7.2,22.2-7.2l12.2,5c12.2,16.7,27.2,25.5,27.2,25.5
					c-2.8,3.9-0.6,7.8-0.6,7.8c2.2-5,8.3-7.8,12.2-7.2c3.3,0.6,2.8,5,2.8,4.4c2.2-2.8,4.4-6.1,1.7-9.4c-2.8-3.3-9.4-0.6-9.4-0.6
					l-7.2-12.2l9.4-5.6C255.31,562.8,229.21,540.5,229.21,540.5"/>
			</g>
			<path class="st0" d="M222.51,493.9c-1.7-1.7-57.8-65-57.8-65c-5-5.6-3.3-9.4-3.3-10l-6.7,15c-1.7,3.9,1.1,6.7,3.3,8.9
				c2.2,2.2,61.1,63.9,61.1,63.9l-0.6,3.3l-55.4-55.5c-4.4-4.4-3.3-8.3-3.3-8.3l-5.6,13.3c-1.1,4.4,3.3,7.2,5.6,9.4
				c3.3,3.3,65.5,61.1,70.5,66.1c11.1,10,16.1,22.8,16.1,22.8C253.01,526.1,228.61,501.1,222.51,493.9"/>
		</g>
		<g id="UNT">
			<path id="Path_1179" class="st0" d="M529.61,449.5l-11.7,32.2h17.8l4.4-12.2h17.2v88.3h-9.4l-7.2,20.5h49.4l7.2-20.5h-13.9v-88.3
				h20.5v12.2h12.2l12.2-32.2H529.61"/>
			<path id="Path_1180_1_" class="st0" d="M323.61,469.5h12.8v57.8c0,10.6-1.7,16.7-7.2,22.2c-5,4.4-11.7,7.2-18.3,6.7
				c-7.8,0.6-15.5-2.8-21.1-7.8c-4.4-5-7.2-12.8-7.2-24.4v-74.4h-36.1l-7.8,20h15.5v55c0,52.2,40.5,56.1,52.8,56.1
				c32.2,0,52.8-20.5,52.8-52.8V469h8.9l7.2-19.4h-45.5"/>
			<path id="Path_1181" class="st0" d="M506.81,469.5v108.8h-15c0,0-71.1-75-75.5-79.4v59.4h13.9l-7.2,20h-46.1l7.2-20h7.8v-88.8
				h-16.1l7.2-20h28.3c0,0,53.9,56.6,73.3,76.6V470h-13.9l7.2-20.5h46.6l-7.2,20.5L506.81,469.5"/>
		</g>
	</g>
	<g class="st1">
		<path class="st0" d="M645.41,433.5h12.7v30c0,5,0.6,8.9,2.8,11.1c1.7,2.2,3.9,3.3,7.2,3.3s5.6-1.1,7.2-3.3
			c1.7-2.2,2.8-5.6,2.8-11.1v-30h12.2v28.9c0,8.9-1.7,15.5-5.6,19.4c-3.9,3.9-9.4,6.1-16.7,6.1c-7.2,0-12.8-2.2-16.7-6.1
			s-5.6-10.6-5.6-19.4v-28.9H645.41z"/>
		<path class="st0" d="M703.11,433.5h12.8l14.4,26.7l5.6,11.7h0.6c-0.6-2.8-0.6-6.1-1.1-9.4s-0.6-6.7-0.6-10v-18.9h12.2v53.3h-12.8
			l-14.4-26.7l-5.6-11.7h-0.6c0.6,2.8,0.6,6.1,1.1,9.4c0.6,3.3,0.6,6.7,0.6,10v18.9h-12.2V433.5z"/>
		<path class="st0" d="M760.31,433.5h12.8v53.3h-12.8V433.5z"/>
		<path class="st0" d="M779.21,433.5h13.3l6.7,25c1.1,2.8,1.7,5.6,2.2,8.3s1.7,5.6,2.2,8.3h0.6c0.6-2.8,1.7-5.6,2.2-8.3
			c0.6-2.8,1.7-5.6,2.2-8.3l6.7-25h12.8l-16.7,53.3h-15L779.21,433.5z"/>
		<path class="st0" d="M834.21,433.5h35v10h-22.2V454h18.9v10.6h-18.9v12.2h23.3v10h-36.1V433.5z"/>
		<path class="st0" d="M911.91,487.3l-10.6-19.4h-7.2v19.4h-12.8v-53.9h20c2.8,0,5.6,0,8.3,0.6c2.8,0.6,5,1.7,6.7,2.8s3.3,2.8,4.4,5
			s1.7,5,1.7,7.8c0,3.9-1.1,7.2-2.8,10s-4.4,4.4-7.2,5.6l12.8,21.7h-13.3L911.91,487.3L911.91,487.3z M894.11,458.5h6.7
			c3.3,0,6.1-0.6,7.8-2.2c1.7-1.1,2.8-3.3,2.8-6.1c0-2.8-1.1-4.4-2.8-5.6c-1.7-1.1-4.4-1.7-7.8-1.7h-6.7V458.5z"/>
		<path class="st0" d="M936.91,472.3c2.2,1.7,4.4,2.8,6.7,3.9s5,1.7,7.2,1.7c2.8,0,4.4-0.6,6.1-1.7c1.1-1.1,1.7-2.2,1.7-3.9
			c0-0.6,0-1.7-0.6-2.2c-0.6-0.6-1.1-1.1-1.7-1.7c-0.6-0.6-1.7-1.1-2.8-1.1c-1.1-0.6-2.2-1.1-3.3-1.1l-7.2-2.8
			c-1.7-0.6-2.8-1.1-4.4-2.2c-1.1-1.1-2.8-1.7-3.9-3.3c-1.1-1.1-1.7-2.8-2.8-3.9s-1.1-3.3-1.1-5.6c0-2.2,0.6-4.4,1.7-6.1
			s2.2-3.9,3.9-5c1.7-1.7,3.9-2.8,6.1-3.3c2.2-0.6,5-1.1,8.3-1.1s6.7,0.6,9.4,1.7c2.8,1.1,6.1,2.8,8.3,5l-6.7,7.8
			c-1.7-1.1-3.9-2.2-5.6-3.3c-1.7-0.6-3.9-1.1-6.1-1.1c-2.2,0-3.9,0.6-5,1.1c-1.1,1.1-1.7,2.2-1.7,3.3c0,0.6,0,1.7,0.6,2.2
			c0.6,0.6,1.1,1.1,1.7,1.7c0.6,0.6,1.7,1.1,2.8,1.1c1.1,0.6,2.2,1.1,3.3,1.1l7.2,2.8c3.3,1.1,6.1,3.3,8.3,5.6
			c2.2,2.2,2.8,5.6,2.8,8.9c0,2.2-0.6,4.4-1.7,6.1c-1.1,2.2-2.2,3.9-3.9,5c-1.7,1.7-3.9,2.8-6.7,3.9s-5.6,1.1-8.9,1.1
			c-3.9,0-7.2-0.6-11.1-1.7s-6.7-3.3-10-5.6L936.91,472.3z"/>
		<path class="st0" d="M981.31,433.5h12.8v53.3h-12.8V433.5z"/>
		<path class="st0" d="M1018.01,444h-15.5v-10.6h43.9v10h-15.5v43.3h-12.8L1018.01,444L1018.01,444z"/>
		<path class="st0" d="M1062.91,467.9l-17.2-34.4h13.9l5,12.2c0.6,2.2,1.7,3.9,2.2,6.1c0.6,1.7,1.7,3.9,2.2,6.1h0.6
			c0.6-2.2,1.7-3.9,2.2-6.1c0.6-1.7,1.7-3.9,2.2-6.1l5-12.2h13.3l-17.2,34.4v18.9h-12.8v-18.9H1062.91z"/>
	</g>
	<g class="st1">
		<path class="st0" d="M668.71,562.9c-3.9,0-7.2-0.6-10.6-1.7c-3.3-1.1-5.6-3.3-8.3-5.6c-2.8-2.2-3.9-5.6-5-8.9
			c-1.1-3.3-1.7-7.2-1.7-11.7s0.6-8.3,1.7-11.7c1.1-3.3,2.8-6.1,5-8.9c2.2-2.2,5-3.9,8.3-5.6s6.7-1.7,10.6-1.7
			c3.9,0,7.2,0.6,10.6,1.7c3.3,1.1,5.6,2.8,8.3,5.6c2.2,2.2,3.9,5,5,8.9c1.1,3.9,1.7,7.2,1.7,11.7s-0.6,8.3-1.7,11.7
			c-1.1,3.3-2.8,6.1-5,8.9c-2.2,2.2-5,4.4-8.3,5.6C676.01,562.4,672.01,562.9,668.71,562.9z M668.71,552.9c3.9,0,6.7-1.7,8.9-4.4
			c2.2-3.3,3.3-7.2,3.3-12.8c0-5.6-1.1-9.4-3.3-12.8c-2.2-2.8-5.6-4.4-8.9-4.4c-3.9,0-6.7,1.7-8.9,4.4c-2.2,2.8-3.3,7.2-3.3,12.8
			c0,5.6,1.1,9.4,3.3,12.8C662.01,551.8,664.81,552.9,668.71,552.9z"/>
		<path class="st0" d="M704.81,508.4h35.5v10h-22.8v12.8h19.4v10h-19.4v20.5h-12.8v-53.3H704.81z"/>
		<path class="st0" d="M767.51,508.4h12.8l14.4,26.7l5.6,11.7h0.6c-0.6-2.8-0.6-6.1-1.1-9.4c-0.6-3.3-0.6-6.7-0.6-10v-18.9h12.2
			v53.3h-12.8l-14.4-26.7l-5.6-11.7h-0.5c0.6,2.8,0.6,6.1,1.1,9.4c0.6,3.3,0.6,6.7,0.6,10v18.9h-12.2v-53.3H767.51z"/>
		<path class="st0" d="M848.01,562.9c-3.9,0-7.2-0.6-10.6-1.7c-3.3-1.1-5.6-3.3-8.3-5.6c-2.8-2.2-3.9-5.6-5-8.9
			c-1.1-3.3-1.7-7.2-1.7-11.7s0.6-8.3,1.7-11.7c1.1-3.3,2.8-6.1,5-8.9c2.2-2.2,5-3.9,8.3-5.6c3.3-1.1,6.7-1.7,10.6-1.7
			s7.2,0.6,10.6,1.7c3.3,1.1,5.6,2.8,8.3,5.6c2.2,2.2,3.9,5,5,8.9c1.1,3.9,1.7,7.2,1.7,11.7s-0.6,8.3-1.7,11.7
			c-1.1,3.3-2.8,6.1-5,8.9c-2.2,2.2-5,4.4-8.3,5.6C855.31,562.3,851.41,562.9,848.01,562.9z M848.01,552.9c3.9,0,6.7-1.7,8.9-4.4
			c2.2-3.3,3.3-7.2,3.3-12.8c0-5.6-1.1-9.4-3.3-12.8c-2.2-2.8-5.6-4.4-8.9-4.4c-3.9,0-6.7,1.7-8.9,4.4c-2.2,2.8-3.3,7.2-3.3,12.8
			c0,5.6,1.1,9.4,3.3,12.8C841.41,551.8,844.21,552.9,848.01,552.9z"/>
		<path class="st0" d="M914.11,562.3l-10.6-19.4h-7.2v19.4h-12.8V509h20c2.8,0,5.6,0,8.3,0.6c2.8,0.6,5,1.7,6.7,2.8
			c2.2,1.1,3.3,2.8,4.4,5c1.1,2.2,1.7,5,1.7,7.8c0,3.9-1.1,7.2-2.8,10c-1.7,2.8-4.4,4.4-7.2,5.6l12.8,21.7
			C927.51,562.3,914.11,562.3,914.11,562.3z M896.41,533.4h6.7c3.3,0,6.1-0.6,7.8-2.2c1.7-1.1,2.8-3.3,2.8-6.1
			c0-2.8-1.1-4.4-2.8-5.6c-1.7-1.2-4.4-1.7-7.8-1.7h-6.7V533.4z"/>
		<path class="st0" d="M946.31,519h-15.5v-10h43.9v10h-15.6v43.3h-12.8V519L946.31,519z"/>
		<path class="st0" d="M983.01,508.4h12.8V529h19.4v-20.5h12.8v53.3h-12.8v-22.2h-19.4v22.2h-12.8V508.4z"/>
		<path class="st0" d="M1070.21,519h-15.5v-10h43.9v10h-15.5v43.3h-12.8L1070.21,519L1070.21,519z"/>
		<path class="st0" d="M1106.81,508.4h35v10h-22.2V529h18.9v10h-18.9v12.2h23.3v10h-36.1L1106.81,508.4L1106.81,508.4z"/>
		<path class="st0" d="M1164.01,534.5l-14.4-26.1h13.9l5,10c0.6,1.1,1.1,2.8,1.7,3.9c0.6,1.7,1.1,2.8,2.2,4.4h0.6
			c0.6-1.7,1.1-3.3,1.7-4.4c0.6-1.7,1.1-2.8,1.7-3.9l4.4-10h13.3l-14.4,26.7l15.5,26.7h-13.9l-5.6-11.1c-0.6-1.7-1.1-2.8-2.2-4.4
			c-0.6-1.7-1.1-2.8-2.2-4.4h-0.6c-0.6,1.7-1.1,3.3-1.7,4.4c-0.6,1.7-1.1,2.8-1.7,4.4l-5,11.1h-13.9L1164.01,534.5z"/>
		<path class="st0" d="M1229.01,549.5h-17.2l-3.3,12.8h-12.8l17.8-53.3h15l17.8,53.3h-13.3L1229.01,549.5z M1226.21,540.1l-1.1-5
			c-0.6-2.8-1.7-5.6-2.2-8.3c-0.6-2.8-1.7-6.1-2.2-8.9h-0.6c-0.6,2.8-1.7,5.6-2.2,8.9c-0.6,2.8-1.7,5.6-2.2,8.3l-1.1,5H1226.21z"/>
		<path class="st0" d="M1255.61,546.8c2.2,1.7,4.4,2.8,6.7,3.9c2.3,1.1,5,1.7,7.2,1.7c2.8,0,4.4-0.6,6.1-1.7
			c1.1-1.1,1.7-2.2,1.7-3.9c0-0.6,0-1.7-0.6-2.2c-0.6-0.6-1.1-1.1-1.7-1.7s-1.7-1.1-2.8-1.1c-1.1-0.6-2.2-1.1-3.3-1.1l-7.2-2.8
			c-1.7-0.6-2.8-1.1-4.4-2.2c-1.1-1.1-2.8-1.7-3.9-3.3c-1.1-1.1-1.7-2.8-2.8-3.9c-0.6-1.7-1.1-3.3-1.1-5.6c0-2.2,0.6-4.4,1.7-6.1
			c1.1-1.7,2.2-3.9,3.9-5c1.7-1.7,3.9-2.8,6.1-3.3c2.2-0.6,5-1.1,8.3-1.1s6.7,0.6,9.4,1.7c2.8,1.1,6.1,2.8,8.3,5l-6.7,7.8
			c-1.7-1.1-3.9-2.2-5.6-3.3s-3.9-1.1-6.1-1.1s-3.9,0.6-5,1.1c-1.1,1.1-1.7,2.2-1.7,3.3c0,0.6,0,1.7,0.6,2.2
			c0.6,0.6,1.1,1.1,1.7,1.7s1.7,1.1,2.8,1.1c1.1,0.6,2.2,1.1,3.3,1.1l7.2,2.8c3.3,1.1,6.1,3.3,8.3,5.6c2.2,2.2,2.8,5.6,2.8,8.9
			c0,2.2-0.6,4.4-1.7,6.1c-1.1,2.2-2.2,3.9-3.9,5c-1.7,1.7-3.9,2.8-6.7,3.9c-2.8,1.1-5.6,1.1-8.9,1.1c-3.9,0-7.2-0.6-11.1-1.7
			c-3.9-1.1-6.7-3.3-10-5.6L1255.61,546.8z"/>
	</g>
</g>
<rect x="47.41" y="369.5" class="st2" width="1263.4" height="269"/>
</svg>
